<svg xmlns="http://www.w3.org/2000/svg" width="760" height="440" viewBox="0 0 760 440" font-family="system-ui, Segoe UI, sans-serif">
<rect x="0.5" y="0.5" width="759" height="439" rx="10" fill="#fcfcfb" stroke="#e1e0d9"/>
<text x="56" y="34" font-size="16" font-weight="700" fill="#0b0b0b">Uplift risk band - joint Monte-Carlo (256 draws)</text>
<text x="56" y="52" font-size="11" fill="#52514e">Demand, cost, elasticity &amp; decline risk drawn together; illustrative, not a forecast</text>
<text x="56" y="70" font-size="11" fill="#0b0b0b">P10-P90 band EUR 145,091 .. 170,723/yr &#183; median EUR 158,504 &#183; mean EUR 158,117</text>
<line x1="56" y1="350.0" x2="736" y2="350.0" stroke="#e1e0d9" stroke-width="1"/>
<text x="50" y="353.0" font-size="9" text-anchor="end" fill="#898781">0</text>
<line x1="56" y1="288.5" x2="736" y2="288.5" stroke="#e1e0d9" stroke-width="1"/>
<text x="50" y="291.5" font-size="9" text-anchor="end" fill="#898781">8</text>
<line x1="56" y1="227.0" x2="736" y2="227.0" stroke="#e1e0d9" stroke-width="1"/>
<text x="50" y="230.0" font-size="9" text-anchor="end" fill="#898781">17</text>
<line x1="56" y1="165.5" x2="736" y2="165.5" stroke="#e1e0d9" stroke-width="1"/>
<text x="50" y="168.5" font-size="9" text-anchor="end" fill="#898781">26</text>
<line x1="56" y1="104.0" x2="736" y2="104.0" stroke="#e1e0d9" stroke-width="1"/>
<text x="50" y="107.0" font-size="9" text-anchor="end" fill="#898781">34</text>
<text x="56" y="96" font-size="10" fill="#0b0b0b" font-weight="600">Draws</text>
<path d="M85.3 350.0V338.5A3.0 3.0 0 0 1 88.3 335.5H108.7A3.0 3.0 0 0 1 111.7 338.5V350.0Z" fill="#b7d3f6"/>
<path d="M113.7 350.0V331.3A3.0 3.0 0 0 1 116.7 328.3H137.0A3.0 3.0 0 0 1 140.0 331.3V350.0Z" fill="#b7d3f6"/>
<path d="M142.0 350.0V338.5A3.0 3.0 0 0 1 145.0 335.5H165.3A3.0 3.0 0 0 1 168.3 338.5V350.0Z" fill="#b7d3f6"/>
<path d="M170.3 350.0V338.5A3.0 3.0 0 0 1 173.3 335.5H193.7A3.0 3.0 0 0 1 196.7 338.5V350.0Z" fill="#b7d3f6"/>
<path d="M198.7 350.0V309.6A3.0 3.0 0 0 1 201.7 306.6H222.0A3.0 3.0 0 0 1 225.0 309.6V350.0Z" fill="#b7d3f6"/>
<path d="M227.0 350.0V244.5A3.0 3.0 0 0 1 230.0 241.5H250.3A3.0 3.0 0 0 1 253.3 244.5V350.0Z" fill="#b7d3f6"/>
<path d="M255.3 350.0V266.2A3.0 3.0 0 0 1 258.3 263.2H278.7A3.0 3.0 0 0 1 281.7 266.2V350.0Z" fill="#5598e7"/>
<path d="M283.7 350.0V230.0A3.0 3.0 0 0 1 286.7 227.0H307.0A3.0 3.0 0 0 1 310.0 230.0V350.0Z" fill="#5598e7"/>
<path d="M312.0 350.0V179.4A3.0 3.0 0 0 1 315.0 176.4H335.3A3.0 3.0 0 0 1 338.3 179.4V350.0Z" fill="#5598e7"/>
<path d="M340.3 350.0V143.2A3.0 3.0 0 0 1 343.3 140.2H363.7A3.0 3.0 0 0 1 366.7 143.2V350.0Z" fill="#5598e7"/>
<path d="M368.7 350.0V107.0A3.0 3.0 0 0 1 371.7 104.0H392.0A3.0 3.0 0 0 1 395.0 107.0V350.0Z" fill="#5598e7"/>
<path d="M397.0 350.0V150.4A3.0 3.0 0 0 1 400.0 147.4H420.3A3.0 3.0 0 0 1 423.3 150.4V350.0Z" fill="#5598e7"/>
<path d="M425.3 350.0V143.2A3.0 3.0 0 0 1 428.3 140.2H448.7A3.0 3.0 0 0 1 451.7 143.2V350.0Z" fill="#5598e7"/>
<path d="M453.7 350.0V215.5A3.0 3.0 0 0 1 456.7 212.5H477.0A3.0 3.0 0 0 1 480.0 215.5V350.0Z" fill="#5598e7"/>
<path d="M482.0 350.0V266.2A3.0 3.0 0 0 1 485.0 263.2H505.3A3.0 3.0 0 0 1 508.3 266.2V350.0Z" fill="#5598e7"/>
<path d="M510.3 350.0V273.4A3.0 3.0 0 0 1 513.3 270.4H533.7A3.0 3.0 0 0 1 536.7 273.4V350.0Z" fill="#b7d3f6"/>
<path d="M538.7 350.0V324.1A3.0 3.0 0 0 1 541.7 321.1H562.0A3.0 3.0 0 0 1 565.0 324.1V350.0Z" fill="#b7d3f6"/>
<path d="M567.0 350.0V316.8A3.0 3.0 0 0 1 570.0 313.8H590.3A3.0 3.0 0 0 1 593.3 316.8V350.0Z" fill="#b7d3f6"/>
<path d="M595.3 350.0V345.8A3.0 3.0 0 0 1 598.3 342.8H618.7A3.0 3.0 0 0 1 621.7 345.8V350.0Z" fill="#b7d3f6"/>
<path d="M680.3 350.0V345.8A3.0 3.0 0 0 1 683.3 342.8H703.7A3.0 3.0 0 0 1 706.7 345.8V350.0Z" fill="#b7d3f6"/>
<line x1="251.2" y1="104" x2="251.2" y2="350" stroke="#52514e" stroke-width="1.2" stroke-dasharray="4 3"/>
<text x="251.2" y="100.0" font-size="9.5" text-anchor="middle" font-weight="700" fill="#0b0b0b">P10 145k</text>
<line x1="500.2" y1="104" x2="500.2" y2="350" stroke="#52514e" stroke-width="1.2" stroke-dasharray="4 3"/>
<text x="500.2" y="100.0" font-size="9.5" text-anchor="middle" font-weight="700" fill="#0b0b0b">P90 171k</text>
<line x1="381.5" y1="104" x2="381.5" y2="350" stroke="#0b0b0b" stroke-width="1.6"/>
<text x="381.5" y="100.0" font-size="9.5" text-anchor="middle" font-weight="700" fill="#0b0b0b">median 159k</text>
<line x1="395.7" y1="104" x2="395.7" y2="350" stroke="#104281" stroke-width="1.8" stroke-dasharray="5 3"/>
<text x="395.7" y="86.0" font-size="9.5" text-anchor="middle" font-weight="700" fill="#0b0b0b">headline 160k</text>
<text x="56.0" y="368.0" font-size="9" text-anchor="middle" fill="#898781">EUR 125k</text>
<text x="192.0" y="368.0" font-size="9" text-anchor="middle" fill="#898781">EUR 139k</text>
<text x="328.0" y="368.0" font-size="9" text-anchor="middle" fill="#898781">EUR 153k</text>
<text x="464.0" y="368.0" font-size="9" text-anchor="middle" fill="#898781">EUR 167k</text>
<text x="600.0" y="368.0" font-size="9" text-anchor="middle" fill="#898781">EUR 181k</text>
<text x="736.0" y="368.0" font-size="9" text-anchor="middle" fill="#898781">EUR 195k</text>
<text x="396.0" y="386.0" font-size="10" text-anchor="middle" fill="#0b0b0b">Total expected uplift (EUR / year)</text>
<text x="56" y="426" font-size="10.5" fill="#0b0b0b">Downside: VaR(10%) EUR 145,091 &#183; CVaR(10%) EUR 139,504 &#183; P(&#8805; headline) 43%</text>
</svg>
